<?xml version="1.0" encoding="utf-8"?>
<!-- Generator: Adobe Illustrator 26.2.1, SVG Export Plug-In . SVG Version: 6.00 Build 0)  -->
<svg version="1.1" xmlns="http://www.w3.org/2000/svg" xmlns:xlink="http://www.w3.org/1999/xlink" x="0px" y="0px"
	 viewBox="0 0 900 900" style="enable-background:new 0 0 900 900;" xml:space="preserve">
<style type="text/css">
	.st0{fill:#009BB7;}
	.st1{fill:#FF0000;}
	.st2{fill:#6793C8;}
	.st3{fill:#FFFFFF;}
	.st4{font-family:'Lexend-SemiBold';}
	.st5{font-size:45.5866px;}
	.st6{letter-spacing:3;}
	.st7{fill:#F7AE00;}
	.st8{fill:#B0B70F;}
	.st9{fill:#DC1681;}
</style>
<g id="Calque_1">
</g>
<g id="Calque_2">
	<rect x="314.72" y="606.38" class="st2" width="221.92" height="60.62"/>
	<path class="st2" d="M134.79,490.73c0,0-9.89,2.14-15.05-39.88c0,0-0.72-4.66,7.99-66.77c0.44-3.12,0.54-6.27,0.31-9.41
		c-0.42-5.86-0.76-14.3,1.44-22c1.23-4.3,3.86-8.05,7.42-10.75c5.58-4.23,14.27-9.18,21.94-4.45c3.52,2.17,5.8,5.86,6.4,9.95
		c1.18,8.04,2.3,28.43-6.75,93.65c28.22-12.79,22.95-15.43,50.79-35.37l18.81-16.55c0,0,12.79-10.16,22.95-4.14
		c7.52,6.02,15.8,12.04,1.13,33.48c-16.55,18.06-21.44,21.44-38.38,32.36c-15.43,11.29-36.49,25.58-55.31,33.48
		C156.24,485.09,144.2,491.11,134.79,490.73z"/>
	<path class="st2" d="M348.87,487.72c25.96,0,32.73-38,20.69-59.07c-12.04-21.07-28.59-28.59-56.06-22.2
		c-27.46,6.4-41.57,23.51-41.57,23.51c-2.97,1.57-7.88,19.68-11.58,34.61c-0.51,2.06-1.2,4.07-2,6.04
		c-7.21,17.67-0.72,28.95-0.72,28.95s2,4.46,12.41,20.63c2.55,3.96,5.65,7.53,9.23,10.58c23.63,20.14,39.5,20.14,39.5,20.14
		c30.47-3.01,36.12-24.83,36.12-24.83c1.41-9.64-4.53-13.4-10.28-14.59c-3.64-0.75-7.43-0.42-10.94,0.79
		c-8.21,2.83-12.53,2.98-16.02,2.81c-2.03-0.1-4.03-0.56-5.89-1.39c-10.82-4.82-22.92-17.83-24.96-25.99
		C288.3,465.53,322.53,483.21,348.87,487.72z M323.66,434.3c10.53,0.75,17.31-1.5,20.69,12.04c0,3.39,1.88,15.05-10.16,14.3
		c-3.76-0.38-33.11-1.88-35.37-9.78C298.83,450.85,292.43,431.67,323.66,434.3z"/>
	<path class="st2" d="M428.44,565.41c0,0-19.94-7.15-16.93-35.74c1.13-10.16,4.89-13.54,2.26-31.6
		c-2.49-17.09-0.27-36.54,0.94-43.36c0.13-0.72,0.19-1.45,0.19-2.19c-0.05-8.9-0.75-24.51-3.69-38.09c-2.71-12.48,2.21-33.2,3.43-38
		c0.19-0.75,0.31-1.51,0.36-2.28c0.19-3.04,0.47-10.99-1.22-17.68c-0.24-0.96-0.38-1.93-0.39-2.92
		c-0.14-9.45-0.94-24.62,17.78-29.63c2.97-0.8,6.17-0.53,8.88,0.92c5.4,2.88,10.73,10.89,10.19,39.19
		c-0.69,36.18-2.45,61.54,2.39,83.47c0.44,1.99,0.65,4.03,0.59,6.07c-0.39,12.09-2.16,42.28,1.57,63.3
		C458.91,540.21,444.99,572.94,428.44,565.41z"/>
	<path class="st2" d="M516.81,501.94c-4.09-10.1-11.8-33.9-7.36-61.32c0.49-3.02,1.34-5.97,2.64-8.73c4.81-10.2,15.2-20.39,28,4.16
		c1.39,2.67,2.41,5.53,3.04,8.47c4.19,19.82,21.37,81.03,14.35,96.82c-6.36,14.3-20.76,11.15-25.09,9.83
		c-0.59-0.18-1.17-0.36-1.77-0.5c-2.17-0.5-10.48-4.55-11.43-37.25C519.08,509.48,518.29,505.59,516.81,501.94z"/>
	<path class="st2" d="M488.06,388.81c-0.24-5.21,0.24-17.78,9.29-26.95c1.69-1.71,3.92-2.79,6.31-3.04
		c11.93-1.24,33.28-0.4,23.73,31.65c-2.93,9.51-22.21,23.29-37.8,2.61C488.66,391.84,488.13,390.36,488.06,388.81z"/>
	<path class="st2" d="M721.14,416.05c-14.26-39.04-31.53-40.63-54.4-42.5c-0.1-0.01-0.21,0-0.31,0.01
		c-39.47,6.14-48.47,25.99-50.24,31.6c-0.27,0.85-1.33,1.15-1.99,0.56c-5.22-4.68-10.33-24.63-12.61-34.5
		c-0.68-2.96-1.84-5.78-3.33-8.44c-0.67-1.19-1.24-2.64-1.25-4.16c0-0.08-0.01-0.16-0.02-0.23c-8.23-40.07-13.91-37.95-26.28-37.48
		c-0.04,0-0.07,0-0.11,0.01c-31.52,3.5,0.05,71.43,0.05,71.43s11.1,24.27,12.6,33.3c0.75,4.51,2.45,7.71,3.95,9.78
		c2.16,2.97,3.9,6.21,5.08,9.68c2.18,6.42,5.48,16.14,7.86,23.09c0.92,2.67,2.16,5.22,3.7,7.59c2.25,3.46,3.03,5.61,3.62,7.98
		c1.18,4.77,2.83,9.41,5.04,13.79c2.07,4.12,3.25,8.55,3.91,12.2c1.07,5.83,4.79,10.83,10.03,13.6c13.77,7.28,17.25,1.72,20.07-1.47
		c0.08-0.09,0.14-0.19,0.2-0.29c4.82-9.88,7.49-12.05,11.13-13.99c2.28-1.22,4.79-1.94,7.36-2.21c9.63-1.03,16.92-5.89,17.82-6.52
		c0.07-0.05,0.13-0.08,0.21-0.11c0.96-0.4,7.71-3.19,11.72-4.35c1.35-0.39,2.57-1.1,3.61-2.05c0.61-0.56,1.46-1.12,2.86-2.12
		c0.09-0.06,0.18-0.11,0.28-0.15C717.49,483.97,735.4,455.06,721.14,416.05z M687.1,449.72c0,0-3.71,3.96-4.92,9.07
		c-0.7,2.99-2.3,5.71-4.6,7.74c-3.99,3.52-11.03,6.5-17.65,7.38c-2.56,0.34-5.07-0.36-7.44-1.39c-8.28-3.61-40.52-26.63-1.89-57.03
		c5.64-4.14,27.09-14.67,34.61,3.01C696.5,442.58,687.1,449.72,687.1,449.72z"/>
	<path class="st2" d="M730.17,316.35c0,0-41.52-22.54-3.83-52.84c17-10.74,34.68-13,49.35,10.33c6.4,24.45,8.28,22.57-4.89,49.29
		c-18.06,22.57-37.62,31.98-47.4,32.73c-9.78,0.75-19.19-13.17-9.03-24.83C727.16,319.74,726.41,325.38,730.17,316.35z"/>
	<text transform="matrix(1 0 0 1 327.207 652.4941)" class="st3 st4 st5 st6">Tracker</text>
</g>
</svg>
